<?xml version="1.0" encoding="UTF-8"?>
<!DOCTYPE svg PUBLIC "-//W3C//DTD SVG 1.1//EN" "http://www.w3.org/Graphics/SVG/1.1/DTD/svg11.dtd">
<!-- Creator: CorelDRAW 2017 -->
<svg xmlns="http://www.w3.org/2000/svg" xml:space="preserve" width="600mm" height="600mm" version="1.1" style="shape-rendering:geometricPrecision; text-rendering:geometricPrecision; image-rendering:optimizeQuality; fill-rule:evenodd; clip-rule:evenodd"
viewBox="0 0 60000 60000"
 xmlns:xlink="http://www.w3.org/1999/xlink">
 <defs>
  <style type="text/css">
   <![CDATA[
    .fil0 {fill:#00824A}
   ]]>
  </style>
 </defs>
 <g id="Camada_x0020_1">
  <metadata id="CorelCorpID_0Corel-Layer"/>
  <g id="_1714480599520">
   <path class="fil0" d="M52222.3 21529.57l4890.71 -3694.99 104.01 -73.61c64.44,233.72 65.4,3565.69 6.65,3823.57l-5009.4 9.11c-63.96,-59.23 -29.07,10.37 8.03,-64.08zm-6385.66 -26.2l4916.48 -3678.8 59.05 -62.52 24.81 3813.5c-284.37,76.13 -4583.97,64.62 -5076.29,21.34l75.95 -93.52zm-1435.32 -3727.18l-1.92 3799.78 -5041.52 0.12c298.22,-198.48 853.31,-667.19 1197.51,-927.23 426.87,-322.56 856.91,-635.53 1279.1,-954.98 761.06,-575.89 1786.71,-1444.6 2566.83,-1917.69zm-11421.08 3756.14l4975.89 -3732.52 33.81 -24.82 19.78 3807.39 -4975.83 17.74c-171.26,-53.95 -71.93,-6.35 -53.65,-67.79zm11917.6 75.29l-0.96 -3790.73 5027.45 -0.65c-99.99,139.43 -4772.02,3672.69 -5026.49,3791.38zm-12827.26 -47.84l-3.06 -3742.89 4996.57 0.36c-59.46,157.24 -2117.66,1650.52 -2428.06,1885.2 -386.1,291.94 -2283.89,1803.44 -2565.45,1857.33zm19239.49 51.55l1.32 -3791.44 5039.07 -2.58c-223.9,191.17 -4687.86,3603.94 -5040.39,3794.02zm-7874.58 -3699.3l-4842.39 3651.59 -103.76 67.37 -29.55 -3817.99 5072.57 -17.03 -96.87 116.06zm-42323.28 35870.11l0 31.12c308.54,246.07 3349.77,4016.77 3563.11,4427.27l74.33 0c648.61,-411.1 1461.4,-790.07 2149.02,-1166.64 1979.55,-1084.16 4309.54,-2534.52 6124.97,-3821.06 1265.85,-897.07 2584.87,-1875.43 3753.67,-2894.43 591.48,-515.7 1175.4,-1011.08 1740.68,-1557.24 554.55,-535.72 1180.91,-1077.98 1711.54,-1637.81 4010.36,-4230.71 7017.54,-8832.43 8897.71,-14345.42 241.69,-708.54 525.17,-1982.31 814.11,-2571.33l820.16 2405.88c796.9,2238.7 1837.48,4582.18 2999.15,6642.59 753.87,1337.13 1577.45,2670.54 2486.45,3908.04 817.7,1113.17 1923.2,2591.59 2899.52,3545.49 543.7,531.23 1010.25,1092.85 1584.04,1612.57 562.34,509.41 1109.94,1013.24 1679.05,1518.04 3131.21,2777.17 8271.71,5769.97 12090.42,7182.69 97.89,-69.66 1670.42,-1914.1 2139.91,-2364.46 365.6,-350.62 724.07,-772.45 1092.79,-1140.87 266.75,-266.45 1038,-899.59 1154.95,-1183.72 -1610.65,-418.78 -3642.59,-1283.06 -5178.74,-1968.47 -3267.52,-1457.91 -6099.61,-3191.51 -8890.63,-5420.32 -4035.84,-3222.8 -7178.08,-7429.06 -9409.46,-12057.57 -1547.59,-3210.04 -2893.29,-7469.47 -3415.23,-10989.6l25703.62 0 7.02 -4514.31 -25616.4 -0.06 121.8 -15663.07 -5025.46 0c-0.48,690.63 -42.26,14769.05 -160.65,15659.41 -2050.29,51.07 -4163.58,3.66 -6220.82,3.66 -2080.74,0 -4161.42,0 -6242.16,0 -717.24,0 -12006.08,-69.12 -12406.15,37.46l9.17 4476.61 24671.73 6.9c-654.47,7672.92 -3542.19,14382.82 -8677.71,20102.86 -2146.14,2390.3 -5066.82,4895.39 -7760.8,6650.63 -3723.1,2425.78 -5335.73,3204.16 -9284.71,5085.16z"/>
   <path class="fil0" d="M57113.01 17834.58c107.3,99.39 66.78,-128.94 101.79,210.64l-7.26 3494.66 -4985.24 -10.31c-37.1,74.45 -71.99,4.85 -8.03,64.08l5009.4 -9.11c58.75,-257.88 57.79,-3589.85 -6.65,-3823.57l-104.01 73.61z"/>
   <path class="fil0" d="M32980.24 21532.33c-18.28,61.44 -117.61,13.84 53.65,67.79l4975.83 -17.74 -19.78 -3807.39 -33.81 24.82 5.16 3749.84 -4981.05 -17.32z"/>
   <path class="fil0" d="M45836.64 21503.37l-75.95 93.52c492.32,43.28 4791.92,54.79 5076.29,-21.34l-24.81 -3813.5 -59.05 62.52c115.39,189.72 36.09,3236.23 36.09,3731.91l-4817.46 9.53 -135.11 -62.64z"/>
   <path class="fil0" d="M38593.1 21563.62c-143.75,-75.59 -82.48,-552.27 -82.48,-875.67l0 -2840.24c243.19,0 4657.22,-72.72 4895.32,39.68 7.85,3.72 20.62,15.41 29.55,24.64l96.87 -116.06 -5072.57 17.03 29.55 3817.99 103.76 -67.37z"/>
  </g>
 </g>
</svg>
