<?xml version="1.0" encoding="UTF-8"?>
<!DOCTYPE svg PUBLIC "-//W3C//DTD SVG 1.1//EN" "http://www.w3.org/Graphics/SVG/1.1/DTD/svg11.dtd">
<!-- Creator: CorelDRAW 2017 -->
<svg xmlns="http://www.w3.org/2000/svg" xml:space="preserve" width="600mm" height="600mm" version="1.1" style="shape-rendering:geometricPrecision; text-rendering:geometricPrecision; image-rendering:optimizeQuality; fill-rule:evenodd; clip-rule:evenodd"
viewBox="0 0 60000 60000"
 xmlns:xlink="http://www.w3.org/1999/xlink">
 <defs>
  <style type="text/css">
   <![CDATA[
    .fil0 {fill:#fff}
    .fil2 {fill:#00824A}
    .fil1 {fill:#00824A;fill-rule:nonzero}
   ]]>
  </style>
 </defs>
 <g id="Camada_x0020_1">
  <metadata id="CorelCorpID_0Corel-Layer"/>
  <g id="_1714389863680">
   <path class="fil0" d="M25098.37 48953.05l0 -4741.62 1102.68 0 0 4741.62 -1102.68 0zm11192.41 -3914.6l-3105.93 0 0 1020.01 2957.38 0c465.58,0 777.99,79.62 941.88,237.37 163.86,159.31 245.04,453.34 245.04,885.23l0 652.44c0,428.84 -81.18,724.43 -245.04,882.18 -163.89,157.71 -476.3,237.37 -941.88,237.37l-2929.84 0c-464.05,0 -777.99,-79.66 -940.35,-237.37 -163.86,-157.75 -245.04,-453.34 -245.04,-882.18l0 -130.17 974.04 -202.15 0 560.53 3354.07 0 0 -1084.33 -2958.91 0c-461,0 -771.89,-79.66 -934.25,-237.41 -160.81,-157.71 -241.99,-451.77 -241.99,-882.14l0 -525.32c0,-430.37 81.18,-724.39 241.99,-883.67 162.36,-157.75 473.25,-237.41 934.25,-237.41l2692.43 0c445.67,0 753.5,76.57 921.97,228.22 169.99,153.13 254.23,422.7 254.23,811.71l0 99.53 -974.05 229.74 0 -542.18zm6884.23 3914.6l0 -4741.62 1102.69 0 0 1837.84 3445.92 0 0 -1837.84 1111.92 0 0 4741.62 -1111.92 0 0 -2039.99 -3445.92 0 0 2039.99 -1102.69 0zm11642.67 0l0 -4741.62 1102.68 0 0 4741.62 -1102.68 0z"/>
   <path class="fil0" d="M15668.74 47060.09l1055.23 -1929.74 1034.38 1947.75 -9.79 -18.01 1027.64 1892.96 1239 0 -2719.98 -4741.62 -1064.42 0 -2684.76 4741.62 1099.63 0 1023.07 -1892.96zm-8308.55 -2003.25l0 3896.21 -1102.72 0 0 -3896.21 -2177.83 0 0 -845.41 5467.57 0 0 845.41 -2187.02 0z"/>
  </g>
  <path class="fil1" d="M4628.64 54852.36l0 -2385.23 397.54 0 0 2052.42 1807.42 0 0 332.81 -2204.96 0zm3017.75 0l0 -2385.23 397.54 0 0 2385.23 -397.54 0zm3869.08 -2061.65l-1867.5 0 0 1728.84 1867.5 0 0 -698.04 -966.12 0 0 -305.07 1363.66 0 0 771.18c0,218.05 -39.27,366.75 -117.11,446.11 -78.57,79.32 -226.5,118.63 -442.98,118.63l-1542.4 0c-218.79,0 -366.72,-40.05 -443.77,-119.41 -77.79,-80.14 -116.32,-228.81 -116.32,-445.33l0 -1256.57c0,-216.48 38.53,-364.41 116.32,-444.51 77.05,-79.36 224.98,-119.41 443.77,-119.41l1542.4 0c214.18,0 360.57,38.49 440.68,116.32 79.36,77.05 119.41,217.27 119.41,420.65l0 58.56 -397.54 79.35 0 -351.3zm1543.18 2061.65l0 -2385.23 397.54 0 0 975.35 1881.38 0 0 -975.35 397.54 0 0 2385.23 -397.54 0 0 -1081.69 -1881.38 0 0 1081.69 -397.54 0zm4840.59 -2061.65l0 2061.65 -397.54 0 0 -2061.65 -1090.93 0 0 -323.58 2584.04 0 0 323.58 -1095.57 0zm5528.61 0l-1687.23 0 0 665.65 1502.34 0c212.62,0 358.23,39.27 436.85,117.1 78.58,78.58 117.85,227.25 117.85,445.3l0 268.11c0,220.32 -38.53,369.81 -115.54,447.61 -77.05,78.57 -223.45,117.88 -439.16,117.88l-1392.16 0c-215.75,0 -362.89,-39.31 -441.46,-118.63 -77.8,-79.36 -117.11,-228.06 -117.11,-446.86l0 -65.51 369.81 -85.5 0 383.69 1775.08 0 0 -716.5 -1497.73 0c-216.49,0 -362.89,-39.3 -439.9,-118.66 -76.27,-78.58 -114.8,-227.29 -114.8,-446.08l0 -207.26c0,-218.01 38.53,-366.71 114.8,-445.29 77.01,-79.36 223.41,-118.63 439.9,-118.63l1269.66 0c212.66,0 359.02,38.49 439.94,116.32 80.88,77.05 120.94,212.62 120.94,406.77l0 50.1 -342.08 97.08 0 -346.69zm2500.02 0l0 2061.65 -397.53 0 0 -2061.65 -1090.93 0 0 -323.58 2584.04 0 0 323.58 -1095.58 0zm1765.85 2061.65l0 -2385.23 2297.42 0 0 318.92 -1899.88 0 0 665.66 1160.27 0 0 314.34 -1160.27 0 0 758.12 1918.38 0 0 328.19 -2315.92 0zm3263.54 0l0 -2385.23 2297.42 0 0 318.92 -1899.89 0 0 665.66 1160.27 0 0 314.34 -1160.27 0 0 758.12 1918.39 0 0 328.19 -2315.92 0zm3263.53 0l0 -2385.23 397.54 0 0 2052.42 1807.42 0 0 332.81 -2204.96 0zm4746.6 0l0 -2385.23 2269.7 0 0 323.58 -1872.16 0 0 781.19 1067.81 0 0 318.96 -1067.81 0 0 961.5 -397.54 0zm4712.73 -2075.54l-1369.83 0 0 836.69 1369.83 0c99.39,0 167.17,-17.71 203.39,-53.93 36.22,-36.22 53.93,-99.39 53.93,-189.54l0 -347.44c0,-90.15 -18.5,-153.32 -55.46,-190.32 -37,-36.96 -104,-55.46 -201.86,-55.46zm-1767.37 2075.54l0 -2385.23 1923 0c178.74,0 307.39,36.18 385.96,109.4 78.62,73.18 117.89,191.06 117.89,353.61l0 532.36c0,161.03 -39.27,278.13 -117.89,351.31 -78.57,73.22 -207.22,109.4 -385.96,109.4l-350.56 0 1089.39 929.15 -591.69 0 -970.73 -929.15 -701.87 0 0 929.15 -397.54 0zm4006.99 -892.15l1285.07 0 -644.1 -1220.35 -640.97 1220.35zm-865.21 892.15l1302.8 -2385.23 426.83 0 1325.91 2385.23 -438.37 0 -304.33 -587.08 -1614.84 0 -305.07 587.08 -392.93 0zm4147.25 -1958.43c5.39,46.23 10.01,95.55 13.1,146.39 3.05,50.85 4.61,118.63 4.61,203.39l0 1608.65 -337.46 0 0 -2385.23 325.14 0 1158.71 1552.41 1081.69 -1552.41 365.19 0 0 2385.23 -365.19 0 0 -1608.65c0,-21.59 2.31,-74.75 7.7,-159.5 5.4,-84.72 9.24,-148.67 10.02,-190.28 -30.04,61.64 -56.25,113.26 -80.14,155.62 -23.12,41.62 -43.89,75.49 -61.64,101.7l-912.18 1326.69 -101.7 0 -947.61 -1291.26c-1.56,-1.52 -5.4,-6.14 -11.58,-15.41 -69.31,-94.77 -118.63,-187.19 -148.66,-277.34zm3853.66 1958.43l0 -2385.23 2297.42 0 0 318.92 -1899.88 0 0 665.66 1160.27 0 0 314.34 -1160.27 0 0 758.12 1918.38 0 0 328.19 -2315.92 0z"/>
  <g id="_1714389863424">
   <path class="fil2" d="M43798.96 18630.21l3036.89 -2294.41 64.58 -45.71c40.01,145.13 40.61,2214.12 4.13,2374.25l-3110.59 5.66c-39.72,-36.78 -18.05,6.44 4.99,-39.79zm-3965.19 -16.27l3052.9 -2284.35 36.66 -38.83 15.41 2368c-176.58,47.27 -2846.42,40.12 -3152.13,13.25l47.16 -58.07zm-891.26 -2314.39l-1.19 2359.47 -3130.54 0.07c185.18,-123.24 529.87,-414.29 743.6,-575.76 265.06,-200.29 532.1,-394.63 794.26,-592.99 472.58,-357.6 1109.46,-897.03 1593.87,-1190.79zm-7091.93 2332.37l3089.79 -2317.71 20.99 -15.41 12.28 2364.2 -3089.74 11.02c-106.35,-33.5 -44.67,-3.95 -33.32,-42.1zm7400.25 46.75l-0.6 -2353.85 3121.8 -0.41c-62.09,86.58 -2963.19,2280.56 -3121.2,2354.26zm-7965.1 -29.7l-1.9 -2324.15 3102.62 0.22c-36.92,97.64 -1314.96,1024.89 -1507.7,1170.62 -239.75,181.28 -1418.19,1119.85 -1593.02,1153.31zm11946.77 32.01l0.82 -2354.3 3129.02 -1.6c-139.03,118.7 -2910.93,2237.87 -3129.84,2355.9zm-4889.72 -2297.09l-3006.89 2267.46 -64.43 41.84 -18.35 -2370.79 3149.82 -10.57 -60.15 72.06zm-26280.68 22273.58l0 19.32c191.59,152.8 2080.05,2494.22 2212.52,2749.12l46.16 0c402.75,-255.27 907.45,-490.6 1334.43,-724.43 1229.21,-673.21 2676.02,-1573.81 3803.3,-2372.68 786.04,-557.04 1605.08,-1164.55 2330.85,-1797.3 367.28,-320.23 729.87,-627.84 1080.88,-966.97 344.34,-332.66 733.28,-669.38 1062.78,-1017 2490.23,-2627.07 4357.55,-5484.51 5525.04,-8907.8 150.08,-439.98 326.11,-1230.92 505.52,-1596.67l509.28 1493.93c494.84,1390.12 1140.99,2845.3 1862.33,4124.72 468.11,830.29 979.51,1658.27 1543.96,2426.7 507.75,691.23 1194.21,1609.25 1800.46,2201.57 337.61,329.87 627.31,678.61 983.61,1001.33 349.18,316.32 689.21,629.18 1042.61,942.63 1944.32,1724.49 5136.32,3582.87 7507.55,4460.1 60.79,-43.26 1037.25,-1188.56 1328.78,-1468.21 227.02,-217.72 449.61,-479.66 678.57,-708.43 165.64,-165.45 644.55,-558.6 717.17,-735.03 -1000.14,-260.04 -2261.88,-796.72 -3215.74,-1222.32 -2028.98,-905.3 -3787.56,-1981.78 -5520.65,-3365.75 -2506.06,-2001.21 -4457.23,-4613.09 -5842.81,-7487.16 -960.98,-1993.28 -1796.59,-4638.17 -2120.69,-6824l15960.68 0 4.36 -2803.17 -15906.53 -0.04 75.64 -9725.99 -3120.56 0c-0.3,428.84 -26.25,9170.85 -99.76,9723.72 -1273.13,31.72 -2585.38,2.27 -3862.82,2.27 -1292.04,0 -2584.04,0 -3876.08,0 -445.37,0 -7455.18,-42.91 -7703.61,23.27l5.7 2779.75 15319.93 4.28c-406.4,4764.51 -2199.53,8931.03 -5388.43,12482.89 -1332.65,1484.26 -3146.25,3039.8 -4819.08,4129.71 -2311.86,1506.29 -3313.23,1989.63 -5765.35,3157.64z"/>
   <path class="fil2" d="M46835.85 16335.8c66.62,61.72 41.46,-80.06 63.2,130.8l-4.5 2170.01 -3095.59 -6.4c-23.04,46.23 -44.71,3.01 -4.99,39.79l3110.59 -5.66c36.48,-160.13 35.88,-2229.12 -4.13,-2374.25l-64.58 45.71z"/>
   <path class="fil2" d="M31850.58 18631.92c-11.35,38.15 -73.03,8.6 33.32,42.1l3089.74 -11.02 -12.28 -2364.2 -20.99 15.41 3.2 2328.47 -3092.99 -10.76z"/>
   <path class="fil2" d="M39833.77 18613.94l-47.16 58.07c305.71,26.87 2975.55,34.02 3152.13,-13.25l-15.41 -2368 -36.66 38.83c71.65,117.81 22.4,2009.54 22.4,2317.33l-2991.4 5.92 -83.9 -38.9z"/>
   <path class="fil2" d="M35335.89 18651.35c-89.26,-46.94 -51.21,-342.93 -51.21,-543.75l0 -1763.65c151.01,0 2891.9,-45.15 3039.75,24.64 4.88,2.31 12.8,9.57 18.35,15.3l60.15 -72.06 -3149.82 10.57 18.35 2370.79 64.43 -41.84z"/>
  </g>
 </g>
</svg>
