<?xml version="1.0" encoding="UTF-8"?>
<!DOCTYPE svg PUBLIC "-//W3C//DTD SVG 1.1//EN" "http://www.w3.org/Graphics/SVG/1.1/DTD/svg11.dtd">
<!-- Creator: CorelDRAW 2017 -->
<svg xmlns="http://www.w3.org/2000/svg" xml:space="preserve" width="800mm" height="200mm" version="1.1" style="shape-rendering:geometricPrecision; text-rendering:geometricPrecision; image-rendering:optimizeQuality; fill-rule:evenodd; clip-rule:evenodd"
viewBox="0 0 80000 20000"
 xmlns:xlink="http://www.w3.org/1999/xlink">
 <defs>
  <style type="text/css">
   <![CDATA[
    .fil0 {fill:#373435}
   ]]>
  </style>
 </defs>
 <g id="Camada_x0020_1">
  <metadata id="CorelCorpID_0Corel-Layer"/>
  <g id="_1714480611680">
   <path class="fil0" d="M33341.55 13220.53l0 -6441.07 1497.9 0 0 6441.07 -1497.9 0zm15203.94 -5317.64l-4219.15 0 0 1385.6 4017.35 0c632.45,0 1056.83,108.15 1279.46,322.44 222.59,216.42 332.87,615.82 332.87,1202.51l0 886.29c0,582.54 -110.28,984.07 -332.87,1198.36 -222.63,214.24 -647.01,322.44 -1279.46,322.44l-3979.93 0c-630.38,0 -1056.84,-108.2 -1277.4,-322.44 -222.58,-214.29 -332.86,-615.82 -332.86,-1198.36l0 -176.83 1323.16 -274.61 0 761.44 4556.2 0 0 -1472.97 -4019.42 0c-626.23,0 -1048.54,-108.21 -1269.1,-322.5 -218.44,-214.24 -328.72,-613.69 -328.72,-1198.31l0 -713.61c0,-584.62 110.28,-984.02 328.72,-1200.38 220.56,-214.29 642.87,-322.5 1269.1,-322.5l3657.44 0c605.4,0 1023.56,104.01 1252.41,310.01 230.93,208.02 345.35,574.2 345.35,1102.64l0 135.21 -1323.15 312.08 0 -736.51zm9351.63 5317.64l0 -6441.07 1497.9 0 0 2496.54 4681 0 0 -2496.54 1510.44 0 0 6441.07 -1510.44 0 0 -2771.15 -4681 0 0 2771.15 -1497.9 0zm15815.56 0l0 -6441.07 1497.9 0 0 6441.07 -1497.9 0z"/>
   <path class="fil0" d="M23357.46 10649.11l0 0 1395.97 2571.42 1683.07 0 -3694.85 -6441.07 -1445.93 0 -3647.02 6441.07 1493.76 0 1389.75 -2571.42 2825.25 0 0 0 -2819.84 0 -5.41 0 1433.43 -2621.38 1391.82 2621.38zm-14111.71 -2721.24l0 5292.66 -1497.95 0 0 -5292.66 -2958.39 0 0 -1148.41 7427.22 0 0 1148.41 -2970.88 0z"/>
  </g>
 </g>
</svg>
