<svg width="800" height="800" viewBox="0 0 800 800" fill="none" xmlns="http://www.w3.org/2000/svg">
<rect width="800" height="800" fill="white"/>
<path fill-rule="evenodd" clip-rule="evenodd" d="M347.686 625.307V574.393H359.526V625.307H347.686ZM467.866 583.273H434.515V594.226H466.27C471.27 594.226 474.624 595.081 476.384 596.775C478.143 598.485 479.015 601.642 479.015 606.28V613.286C479.015 617.89 478.143 621.064 476.384 622.758C474.624 624.451 471.27 625.307 466.27 625.307H434.811C429.828 625.307 426.457 624.451 424.714 622.758C422.955 621.064 422.083 617.89 422.083 613.286V611.888L432.542 609.717V615.736H468.556V604.093H436.785C431.835 604.093 428.497 603.237 426.753 601.544C425.026 599.85 424.155 596.693 424.155 592.071V586.431C424.155 581.81 425.026 578.653 426.753 576.942C428.497 575.249 431.835 574.393 436.785 574.393H465.695C470.48 574.393 473.786 575.215 475.595 576.844C477.42 578.488 478.325 581.382 478.325 585.559V586.628L467.866 589.095V583.273ZM541.786 625.307V574.393H553.626V594.127H590.627V574.393H602.566V625.307H590.627V603.402H553.626V625.307H541.786ZM666.8 625.307V574.393H678.64V625.307H666.8Z" fill="#373435"/>
<path fill-rule="evenodd" clip-rule="evenodd" d="M268.767 604.981L279.801 625.307H293.105L263.899 574.393H252.47L223.642 625.307H235.449L246.434 604.981H268.767H246.477H246.434L257.765 584.26L268.767 604.981ZM157.221 583.471V625.307H145.38V583.471H121.995V574.393H180.704V583.471H157.221Z" fill="#373435"/>
<path d="M207.583 514.751C313.554 467.587 370.783 396.808 379.137 302.414H214.556V272.353H380.452C381.11 237.753 381.439 202.955 381.439 167.895H414.921C414.921 202.429 414.657 237.292 414 272.353H584.895V302.414H413.408C431.629 405.031 491.488 472.784 592.987 505.542C579.896 518.106 570.161 528.499 563.715 536.722C480.109 503.108 425.446 443.117 399.726 356.946C379.663 434.895 323.619 497.451 231.461 544.483C226.33 537.511 218.371 527.644 207.583 514.751V514.751ZM581.061 282.396V280.344H581.201V280.273L581.343 280.203V278.487H581.389V276.004H580.316V276.074H580.246V276.215H580.105V276.356H579.964V276.427C579.86 276.427 579.823 276.464 579.823 276.568H579.611V276.638H579.541V276.779H579.47V276.85H579.4L579.329 277.061V277.132L579.047 277.273H578.977V277.343H578.695V277.652C578.672 277.666 578.641 277.672 578.6 277.672V277.743H578.46V277.884H578.389V277.954H578.319V278.024H577.966V278.165H577.895L577.825 278.236H577.684V278.377H577.402V278.448L577.261 278.518V278.589H577.12V278.659H576.979V278.729H576.909V278.8H576.767L576.697 278.941H576.556V279.012H576.485V279.082H576.345C576.345 279.191 576.241 279.294 576.133 279.294V279.364H576.062V279.435H575.851V279.576H575.71V279.717H575.569V279.787L575.216 279.928V279.999H575.146V280.139H574.935V280.21H574.864V280.281H574.652C574.652 280.406 574.663 280.492 574.511 280.492L574.441 280.563H574.37V280.633H574.229V280.703H574.159V280.774H574.018V280.845H573.947V280.915H573.806V280.986H573.595V281.056H573.524V281.127H573.454V281.197H573.242V281.268H573.172V281.338H573.031V281.409H572.96V281.479H572.89V281.55H572.678V281.62H572.607V281.691C572.46 281.691 572.545 281.761 572.396 281.761V281.832L572.255 281.902V281.973H572.185V282.043L571.973 282.114V282.184H571.903V282.255H571.832C571.832 282.359 571.795 282.396 571.691 282.396V282.466H571.621V282.537H571.55V282.748H571.339V282.889H571.268V283.03H571.197V283.101H571.127V283.171H571.057V283.242C570.953 283.242 570.916 283.279 570.916 283.383H570.845V283.453L570.633 283.524V283.594H570.492V283.735H570.352V283.806L570.14 283.876V283.947C570.036 283.947 569.999 283.985 569.999 284.088H569.858V284.158H569.787V284.229H569.717L569.647 284.299H569.576V284.37H569.435V284.441C569.336 284.514 569.059 284.722 568.942 284.722V284.793H568.801C568.801 284.997 568.532 285.036 568.377 285.075V285.146H568.237V285.286H568.095V285.427H567.954L567.884 285.568H567.743V285.709H567.532V285.851C567.346 285.851 567.364 286.062 567.179 286.062L566.756 286.344V286.415H566.685V286.485H566.615L566.544 286.556H566.403V286.626H566.333V286.696H566.262V286.767H566.051V286.837H565.98V286.908H565.839C565.839 287.06 565.753 287.049 565.628 287.049L565.487 287.261H565.346V287.331L565.064 287.401V287.542H564.923V287.613H564.853V287.683H564.782V287.754H564.641V287.825H564.57V287.895H564.5V287.966H564.429C564.429 288.118 564.343 288.106 564.218 288.106C564.218 288.255 564.147 288.17 564.147 288.318H564.077C564.077 288.422 564.039 288.459 563.936 288.459C563.936 288.608 563.865 288.522 563.865 288.671H563.724V288.811H563.583C563.583 288.915 563.546 288.953 563.442 288.953V289.023H563.372C563.372 289.127 563.334 289.164 563.231 289.164L563.09 289.305H563.019L562.949 289.517H562.808V289.587H562.667V289.658H562.596V289.728H562.526V289.799H562.385V289.869H562.314V289.94H562.244V290.01H562.173L562.103 290.081H562.032V290.151L561.609 290.292V290.363H561.468C561.468 290.466 561.431 290.504 561.327 290.504V290.574H561.115V290.645H561.045V290.715H560.834V290.786L560.693 290.856V290.927H560.551V290.997H560.41V291.138C560.307 291.138 560.27 291.176 560.27 291.279H560.199L560.129 291.35H560.058V291.42H559.988V291.491H559.917V291.561C559.765 291.561 559.776 291.648 559.776 291.773H559.635C559.635 291.877 559.598 291.914 559.494 291.914L559.424 292.055H559.353V292.196H559.212V292.266H559.071C559.071 292.37 559.033 292.407 558.93 292.407L558.436 292.76V292.83H558.295V292.901C558.147 292.901 558.233 292.971 558.084 292.971V293.042H558.013V293.183H557.802V293.253L557.661 293.324C557.661 293.427 557.623 293.465 557.52 293.465V293.535H557.45V293.606H557.379V293.676H557.238V293.747H557.167V293.817C556.969 293.817 556.956 293.83 556.956 294.029H556.815V294.099H556.745V294.17C556.602 294.17 556.462 294.132 556.462 294.311H556.392V294.381C556.325 294.381 556.261 294.421 556.221 294.476L555.429 294.546V294.617H555.358V294.687H555.288V294.757H555.147V294.828L555.005 294.899V294.969L554.794 295.04L554.724 295.181H554.653V295.251H554.512V295.392H554.371C554.371 295.496 554.334 295.533 554.23 295.533V295.674H554.089C554.089 295.778 554.051 295.815 553.948 295.815V295.956H553.807V296.097H553.595V296.144H553.078L553.031 296.732L552.89 296.802V296.873H552.749V297.014H552.185V297.084C552.007 297.084 552.045 297.224 552.045 297.366H551.974V297.86H551.128V298.001H551.057V298.142H550.987V298.212H550.916V298.283H550.846V298.353L550.564 298.424L550.493 298.495H550.141V298.565H550V299.567H552.796V299.591H554.911V299.662H555.334V299.732H562.941V299.662H575.914V299.591H581.201L581.061 282.396V282.396ZM542.724 279.921L542.573 296.559H542.707L542.713 297.014H542.667V298.283H542.597V299.426H543.599V299.285H543.67C543.67 299.086 543.683 299.074 543.882 299.074V298.933H544.022V298.792H544.163V298.58H544.234V298.439H544.375L544.516 298.157H544.587V298.087H544.727V297.875L544.798 297.805V297.734H545.292V297.55C545.479 297.507 545.616 297.438 545.668 297.335H546.02V297.264H546.091V297.053L546.302 296.912V296.771H546.373V296.7H546.443C546.443 296.576 546.432 296.489 546.584 296.489C546.584 296.315 546.725 296.381 546.725 296.207H546.796L546.866 296.136H546.937V296.066H547.007V295.995L547.149 295.925V295.878L547.219 295.855C547.289 295.713 547.323 295.751 547.43 295.643H547.501V295.596L547.642 295.572V295.502L548.559 294.938V294.867C548.672 294.867 548.709 294.788 548.764 294.726H548.77C548.77 294.686 548.876 294.656 548.911 294.656L548.981 294.585H549.052V294.515L549.193 294.445V294.374L549.475 294.303V294.233H549.616V294.021H550.321L550.462 293.81H550.674L550.744 293.669H550.814V293.457H550.885L550.956 293.175H551.097V293.105H551.167V293.035H551.238L551.308 292.893H551.449L551.519 292.752H551.661C551.661 292.574 551.859 292.579 552.013 292.541V292.47H552.225V292.4H552.295V292.329H552.366V292.259H552.507V292.188H552.577V292.118H552.648V291.977H552.789V291.836H552.859V291.765H552.93V291.695H553L553.071 291.413H553.212C553.212 291.304 553.315 291.201 553.423 291.201V291.06H553.564V290.919H553.705V290.849H553.776V290.778H553.846V290.707L554.128 290.637C554.128 290.346 554.481 290.646 554.481 290.355H554.763V290.285H554.904V290.214H555.115L555.186 290.003H555.327C555.327 289.899 555.364 289.862 555.468 289.862L555.538 289.791H555.609V289.721H555.679V289.65L555.82 289.58V289.509H556.032V289.439L556.243 289.368V289.297L556.525 289.227V289.157H556.737V289.016H556.878V288.945H557.019V288.875H557.089V288.804H557.231C557.231 288.701 557.268 288.663 557.371 288.663V288.592H557.512V288.522H557.583V288.452H557.724V288.381H557.865C557.865 288.146 558.076 288.334 558.076 288.099H558.147V288.028H558.217V287.958H558.288V287.747H558.429V287.606H558.5V287.465H558.641C558.641 287.34 558.629 287.253 558.781 287.253V287.112H558.852V287.042H558.993V286.901H559.205C559.205 286.797 559.242 286.759 559.346 286.759V286.689H559.486V286.618H559.557V286.548H559.698V286.477H559.839V286.407H560.333V286.337H560.474V286.266H560.615V286.195H560.756V286.125H560.896V285.984H561.037V285.843H561.108L561.39 285.42H561.461V285.349C561.564 285.349 561.601 285.312 561.601 285.208H561.672V285.067H561.813V284.997H561.884V284.927H561.954V284.856L562.095 284.785V284.715C562.197 284.664 562.288 284.574 562.377 284.574V284.503H562.448V284.433H562.589V284.292H562.8C562.8 284.188 562.838 284.151 562.941 284.151V284.08H563.012V284.01H563.153V283.939H563.223V283.869H563.294C563.294 283.717 563.38 283.728 563.505 283.728V283.587H563.717V283.516H563.787V283.446H563.999L564.069 283.234H564.21V283.164H564.351V283.093H564.492V282.953H564.704V282.811H564.845V282.741H564.986V282.67H565.056V282.6H565.127V282.529H565.268V282.459H565.339V282.388L565.55 282.247V282.177H565.761V282.036H565.902V281.965H565.973V281.895H566.184V281.824H566.325V281.754H566.466V281.683H566.537V281.613H566.678V281.542H566.749V281.472H566.96V281.331H567.101V281.26L567.383 281.19V281.049H567.454V280.978C567.601 280.978 567.516 280.908 567.665 280.908V280.837H567.806V280.696H567.877V280.626L568.018 280.555V280.485H568.088L568.158 280.273C568.262 280.273 568.299 280.236 568.299 280.132H568.37L568.426 279.907L570.062 279.004V278.934L570.273 278.863V278.793L570.485 278.722V278.651C570.628 278.651 570.767 278.689 570.767 278.51L571.261 278.37L571.331 278.158H571.472V278.134H571.801V277.993H571.871L571.942 277.782H572.012L572.083 277.711H572.153C572.153 277.563 572.224 277.648 572.224 277.5H572.294V277.359H572.365V277.218H572.435V277.147H572.506V277.006H572.576V276.936H572.647V276.795H572.788C572.788 276.686 572.891 276.583 572.999 276.583C572.999 276.374 573.249 276.442 573.423 276.442L573.493 276.301H573.704V276.231H573.845V275.228H572.209V275.299H570.305V275.435L569.287 275.45V275.416L555.546 275.557V275.627L553.917 275.557V275.486H553.494V275.416L545.665 275.343L545.668 275.134H543.067L543.066 275.204H542.714V275.486H542.644L542.714 279.921H542.724V279.921ZM510.706 296.756L509.578 296.778V297.225H508.967V297.93H508.332V298.071H508.191V298.142H508.121V298.283H508.05V298.353L507.204 298.847V299.849H508.418V299.779H509.969V299.464L514.16 299.591V299.662L519.017 299.732V299.662H519.582V299.591L538.547 299.45V295.368H538.477V294.804L538.336 294.734V293.888H538.265V293.535H538.195V292.752H538.406V292.541H538.477V287.542L538.406 287.472V287.331H538.336L538.406 280.696H538.477L538.427 278.557H538.523V275.933H537.521V276.074H537.45V276.215H537.239V276.286L537.098 276.356V276.427H536.957V276.497H536.886V276.568H536.745V276.638H536.604V276.709H536.534V276.779H536.393V276.85L536.181 276.921V277.061H536.04V277.132H535.899V277.273H535.758V277.672H535.241V277.743H535.171V277.813H535.1L535.061 278.129L534.324 278.165V278.377H534.183V278.448H534.113C534.113 278.621 533.972 278.556 533.972 278.729H533.831V278.871C533.595 278.871 533.784 279.082 533.549 279.082L533.478 279.223H533.337V279.364H533.126V279.505H532.985V279.576H532.914V279.646C532.766 279.646 532.851 279.717 532.703 279.717V279.787H532.562V279.858L532.28 279.999V280.139H532.068V280.281H531.927V280.351L531.786 280.422V280.492H531.716L531.645 280.563H531.575C531.575 280.736 531.433 280.671 531.433 280.845H531.293V280.915H531.222V280.986L531.081 281.056V281.127H530.869V281.338H530.728V281.409H530.588V281.479C530.484 281.479 530.447 281.516 530.447 281.62H530.306V281.691H530.235V281.761H530.164V281.832L529.883 281.902V281.973H529.812V282.043H529.742V282.114H529.671V282.184H529.53V282.255H529.459V282.325L529.248 282.396V282.466H529.178V282.537L528.966 282.607V282.678H528.895V282.748H528.825V282.819L528.543 282.889V282.96H528.473V283.03C528.335 283.076 528.19 283.082 528.19 283.242L527.908 283.312V283.383H527.768C527.768 283.491 527.664 283.594 527.556 283.594V283.665H527.415V283.735H527.274V283.876H527.133V283.947H527.063V284.017H526.992V284.088H526.851V284.158H526.71V284.299H526.569V284.441L526.216 284.581V284.652H526.075L526.005 284.793H525.864V284.934H525.723V285.004H525.652V285.075H525.511V285.146H525.441V285.216H525.3V285.357H525.159V285.498H525.018V285.568L524.736 285.639V285.851H524.595V285.921H524.454V285.991C524.35 285.991 524.313 286.029 524.313 286.132H524.172V286.203H524.101V286.273L523.96 286.344V286.415L523.608 286.556V286.696H523.467C523.467 286.849 523.38 286.837 523.255 286.837V286.908H523.114V286.979H523.044V287.049H522.903V287.19H522.762V287.261L522.55 287.331V287.401H522.409L522.339 287.472H522.198V287.613H522.057V287.683L521.916 287.754C521.791 287.754 521.704 287.743 521.704 287.895H521.493V287.966H521.422V288.106H521.281V288.177H521.211V288.247H521.14C521.14 288.373 521.151 288.459 520.999 288.459V288.6H520.858V288.741H520.787V288.811H520.717V288.882H520.646L520.506 289.164H520.365V289.305H520.294L520.012 289.587H519.941V289.658H519.871V289.728H519.801V289.799L519.589 289.869V290.01H519.448V290.081C519.299 290.081 519.385 290.151 519.236 290.151C519.065 290.323 519.277 290.363 518.884 290.363V290.433H518.813V290.504L518.531 290.645C518.428 290.645 518.391 290.682 518.391 290.786H518.25V290.856H518.038V290.927H517.967V290.997H517.897V291.068L517.686 291.138V291.209C517.582 291.209 517.545 291.246 517.545 291.35C517.406 291.396 517.192 291.456 517.192 291.632L516.769 291.914V291.984H516.628V292.125H516.487V292.196L516.275 292.266V292.337H516.205L516.134 292.407H516.064V292.478H515.993V292.619L515.711 292.76C515.608 292.76 515.571 292.797 515.571 292.901H515.429V292.971H515.359V293.042H515.288V293.112H515.077V293.183H515.006C515.006 293.335 514.92 293.324 514.795 293.324V293.465H514.654V293.535H514.583V293.606H514.513V293.676H514.372C514.372 293.78 514.334 293.817 514.231 293.817V293.888L514.019 293.958V294.029H513.878V294.17H513.737V294.24H513.596V294.311H513.526V294.381H513.455V294.452H513.385V294.523C513.26 294.523 513.173 294.511 513.173 294.663H513.032V294.734L512.398 295.016V295.086C512.296 295.137 512.204 295.227 512.116 295.227V295.298H511.975V295.368H511.833L511.763 295.509H511.622V295.58H511.481V295.721H511.269V295.862H511.199V295.933H511.058C511.058 296.085 510.971 296.073 510.847 296.073V296.214H510.776V296.285H510.706V296.756V296.756ZM502.52 275.557V275.064H499.919V282.247H499.989L500.06 297.335L500.083 297.335V297.86H500.013V299.003L501.227 298.933V298.862H501.297V298.721H501.438C501.438 298.543 501.578 298.58 501.72 298.58V298.51H501.791V297.946H502.778V297.267L502.872 297.264C502.872 297.156 502.975 297.053 503.084 297.053V296.912H503.859L504 296.559C504.152 296.559 504.141 296.473 504.141 296.348H504.282C504.282 296.244 504.32 296.207 504.423 296.207V296.136H504.494V296.066H504.635C504.635 295.917 504.705 296.003 504.705 295.855L505.128 295.714V295.572H505.199V295.502H505.269L505.41 295.361H505.481V295.29L505.692 295.15V295.009H505.833C505.833 294.883 505.822 294.797 505.975 294.797C506.02 294.66 506.026 294.515 506.186 294.515V294.445H507.243V294.374L507.596 294.162V294.092H507.737L507.878 293.951H508.09L508.23 293.81H508.371V293.739H508.442V293.598H508.654V293.457H508.795V293.316H508.935C508.935 293.213 508.973 293.175 509.076 293.175V293.105H509.147V292.964C509.255 292.964 509.359 292.861 509.359 292.752H509.429C509.429 292.604 509.5 292.689 509.5 292.541H509.57V292.188H509.64V292.118H509.852V291.906H509.993V291.836H510.134V291.765H510.275V291.624H510.416V291.554L510.628 291.483V291.413L510.839 291.342V291.201H511.05V291.06H511.192V290.99L511.403 290.919V290.849C511.507 290.849 511.544 290.811 511.544 290.707C511.669 290.707 511.755 290.719 511.755 290.567H511.897V290.496H511.967V290.426H512.108V290.355H512.179V290.285L512.39 290.214V290.144H512.461V290.073H512.531V290.003H512.672V289.862L512.954 289.791V289.65H513.095C513.095 289.498 513.182 289.509 513.307 289.509V289.439H513.448L513.518 289.297H513.589V289.227H513.73V289.157H513.8V289.086L514.082 288.945V288.875H514.153V288.804C514.256 288.804 514.294 288.767 514.294 288.663L514.505 288.592V288.452H514.646V288.311L514.928 288.099V288.028H515.069V287.887H515.21V287.747H515.351V287.606H515.563V287.394H515.704V287.323L515.845 287.253C515.969 287.253 516.057 287.264 516.057 287.112H516.127V287.042C516.3 287.042 516.235 286.901 516.409 286.901V286.83C516.557 286.83 516.472 286.759 516.62 286.759V286.689H516.761C516.761 286.454 516.973 286.642 516.973 286.407L517.537 286.054V285.984H517.607V285.843H517.819V285.772H517.889V285.702H517.96C517.96 285.598 517.997 285.561 518.101 285.561V285.491H518.242C518.242 285.387 518.279 285.349 518.383 285.349V285.279H518.453L518.665 284.997H518.877V284.856H519.017V284.785H519.158V284.715H519.299V284.644L519.582 284.574V284.503H519.722V284.433H519.934L520.005 284.362H520.075V284.292H520.357V284.221L520.639 284.151V284.08H520.78V283.939C520.939 283.939 521.132 283.994 521.132 283.798L521.415 283.728V283.657L521.626 283.587V283.516H521.697V283.446H521.767V283.375H521.837V283.305H521.908V283.234H521.979C521.979 283.131 522.016 283.093 522.12 283.093V282.953C522.268 282.953 522.183 282.882 522.331 282.882V282.811H522.402V282.741H522.543V282.67C522.644 282.62 522.736 282.529 522.825 282.529V282.459C522.973 282.459 522.888 282.388 523.036 282.388V282.318C523.14 282.318 523.177 282.281 523.177 282.177C523.302 282.177 523.389 282.188 523.389 282.036C523.524 282.036 523.544 281.938 523.6 281.824H523.671V281.683H523.741V281.542H523.882V281.472H524.587V281.401H524.658V280.837H524.728C524.728 280.733 524.766 280.696 524.869 280.696V280.626H525.01V280.555H525.081V280.485H525.292V280.344C525.396 280.344 525.433 280.306 525.433 280.203H525.645V280.132H525.715V280.062H525.786L525.856 279.921H525.997C525.997 279.817 526.035 279.78 526.138 279.78L526.209 279.639H526.35V279.568H526.491V279.427H526.632V279.357L526.985 279.286V279.215L527.266 279.145V279.075H527.407V279.004L527.549 278.934V278.863H527.689V278.722H527.901C527.901 278.57 527.987 278.581 528.113 278.581V278.51H528.183V278.44L528.818 278.088L528.828 277.876H528.959V277.711H529.428V277.641H529.499V277.57H529.71V277.5H529.851V277.429H529.992V277.359L530.274 277.288C530.274 277.163 530.263 277.077 530.415 277.077V277.006H530.486V276.936H530.556V276.795C530.681 276.795 530.768 276.806 530.768 276.653H530.838V276.583H530.909V276.513H531.12V275.44H529.781V275.369H528.959V275.275H523.467V275.345L518.947 275.134V275.064H518.101V274.993L511.34 275.064V275.134H510.071V275.204H510.001V275.275L505.489 275.345V275.416L502.527 275.486V275.557H502.52V275.557ZM469.242 299.803H469.312V299.732L469.524 299.662V299.591H469.595V299.521H469.947V299.45H470.088V299.379L470.448 299.309V299.521L477.311 299.452V299.497H477.522V299.567H477.804V299.638H478.298V299.708H481.486V299.638H483.178V299.497H483.954V299.309H486.593V299.379H487.792V299.45L495.681 299.591L495.469 292.118H495.893L495.963 291.272H496.033V284.722H495.963L495.893 283.806H495.822V283.665H495.751V283.101H495.681V281.613H495.751V281.19H495.822V280.978L495.893 280.908V277.46L495.751 277.39V277.319L495.727 277.319L495.798 276.074H494.796L494.725 276.356H494.655V276.709H494.02V276.779H493.879V277.276L492.727 277.249V277.319H492.657L492.586 277.743H492.516V277.884H492.445V277.954H492.375V278.024H492.304V278.095H492.234V278.236H492.093V278.307H492.022V278.377H491.952V278.518H491.811V278.659H491.669V278.729H491.599L491.529 278.8H491.458L491.388 278.941H491.317V279.012H491.247V279.082H491.105C491.105 279.234 491.019 279.223 490.894 279.223V279.294L490.753 279.364V279.435H490.542L490.471 279.505H490.401V279.576H490.259V279.646L489.978 279.717V279.787H489.766V279.858C489.617 279.858 489.703 279.928 489.554 279.928V279.999H489.343C489.343 280.151 489.256 280.139 489.131 280.139L489.061 280.21H488.99V280.281H488.849L488.779 280.492H488.638V280.563H488.497V280.633C488.393 280.633 488.356 280.671 488.356 280.774H488.215L488.144 280.915H488.074V280.986H488.004V281.056L487.721 281.197C487.721 281.301 487.684 281.338 487.58 281.338L487.51 281.479H487.439V281.55H487.369L487.299 281.691H487.157C487.157 281.926 486.946 281.737 486.946 281.973H486.805V282.043H486.734V282.114H486.593V282.184H486.523V282.255H486.382V282.396H486.241V282.466H486.1V282.537C485.975 282.537 485.888 282.526 485.888 282.678L485.747 282.748V282.819L485.465 282.889L485.395 283.03C485.286 283.03 485.183 283.133 485.183 283.242H485.042V283.312H484.972L484.901 283.383H484.831V283.453H484.69V283.594H484.549V283.665H484.478V283.735H484.337C484.337 283.883 484.267 283.798 484.267 283.947H484.126V284.017H484.055L483.985 284.088H483.914V284.158L483.844 284.229V284.299L483.562 284.37V284.441L483.35 284.581V284.652L482.293 285.498V285.568H482.222V285.639H482.152V285.709H482.081L482.011 285.851H481.87V285.991H481.729C481.729 286.14 481.658 286.054 481.658 286.203H481.587C481.587 286.355 481.501 286.344 481.376 286.344V286.415L481.235 286.485V286.556H481.094V286.626H480.953V286.696H480.882V286.767H480.742V286.908L480.319 287.049C480.319 287.153 480.281 287.19 480.177 287.19V287.261L479.966 287.331V287.401H479.825L479.755 287.542H479.613V287.613L479.332 287.754V287.825C479.183 287.825 479.269 287.895 479.12 287.895V287.966C479.017 287.966 478.979 288.003 478.979 288.106C478.854 288.106 478.767 288.095 478.767 288.247H478.627V288.318H478.556L478.486 288.459H478.415C478.415 288.562 478.378 288.6 478.274 288.6L478.133 288.671V288.741H478.062V288.811H477.922V288.882H477.781V288.953H477.71V289.023C477.607 289.023 477.569 289.061 477.569 289.164H477.498L477.428 289.235H477.357V289.305H477.217V289.517H477.075V289.587L476.793 289.658L476.723 289.799H476.582V289.869H476.511V289.94L476.229 290.01V290.081H476.159V290.151C476.01 290.151 476.096 290.221 475.947 290.221L475.807 290.363H475.736L475.665 290.504H475.524V290.574H475.454V290.645C475.341 290.701 475.242 290.721 475.242 290.856H475.101V290.927H475.031L474.96 291.068H474.819V291.138L474.608 291.209V291.279H474.537C474.537 291.383 474.5 291.42 474.396 291.42L473.762 291.914V291.984H473.621L473.339 292.266C473.165 292.266 473.23 292.407 473.057 292.407V292.478L472.845 292.548V292.619H472.704L472.634 292.76H472.563V292.83L472.352 292.901V292.971H472.281V293.042H472.211V293.112H472.069V293.183H471.999V293.253H471.929V293.324H471.858V293.394C471.71 293.394 471.795 293.465 471.647 293.465V293.535C471.543 293.535 471.505 293.573 471.505 293.676H471.364V293.747H471.294V293.817H471.153L471.083 294.029H470.942V294.099C470.757 294.099 470.775 294.311 470.589 294.311C470.589 294.415 470.552 294.452 470.448 294.452L470.307 294.663H470.095V294.734H470.025L469.955 294.875C469.851 294.875 469.814 294.912 469.814 295.016H469.673V295.086L469.531 295.157V295.227H469.39V295.298L468.685 295.58V295.65H468.545V295.721H468.474L468.404 295.791C468.255 295.791 468.34 295.862 468.192 295.862V295.933C468.089 295.933 468.051 295.97 468.051 296.073H467.84C467.84 296.198 467.851 296.285 467.699 296.285V296.355H467.557V296.426H467.487V296.849H467.346V296.919H466.994V296.99H466.923V297.061L466.711 297.131V297.202L466.524 297.225V297.295L466.43 297.343C466.43 297.463 466.445 297.507 466.312 297.507V297.578H466.242V297.648H466.171V297.789H466.03L465.819 298.071H465.748V298.142H465.607V298.283H465.537L465.325 298.495H465.255V298.565H465.114V298.635H464.902V298.706H464.832V298.776H464.549V299.779H466.187V299.708H466.43V299.944L469.242 299.803V299.803ZM460.476 296.677H461.322V296.607H461.393V296.536H461.463V296.466H461.534C461.534 296.362 461.571 296.325 461.675 296.325V296.184H461.816V296.113H461.886V296.043H461.957V295.831H462.098V295.69L462.239 295.62V295.549H462.309V295.408H462.38V295.337H462.45V295.197H462.591V295.126H462.662C462.662 295.023 462.699 294.985 462.803 294.985V294.915H462.873V294.844H463.014V294.773L463.155 294.703V294.632H463.367V294.492L464.354 293.927V293.787H464.565V293.646L464.848 293.575V293.505H464.918V293.434H465.059L465.129 293.293H465.27V293.222H465.412V293.152L465.764 293.011V292.941C465.912 292.941 465.827 292.87 465.975 292.87C465.975 292.766 466.013 292.729 466.117 292.729L466.187 292.588H466.328V292.517L466.61 292.377V292.235H466.822L467.033 291.953H467.104V291.883H467.174L467.245 291.812H467.315V291.672H467.456V291.601H467.527V291.531H467.668L467.738 291.319H467.879C467.879 291.166 468.103 291.031 468.232 290.967V290.896L468.584 290.684V290.614H468.725V290.473H468.866V290.332H469.078L469.219 290.12H469.289L469.36 289.979H469.501V289.909H469.571V289.838C469.72 289.838 469.634 289.768 469.783 289.768L469.853 289.697H469.924V289.627L470.206 289.556L470.276 289.415H470.488V289.345H470.558V289.274H470.77V289.133L470.981 289.063V288.992L471.475 288.71V288.64H471.616V288.569H471.686V288.499H471.757V288.428C471.879 288.327 472.238 288.005 472.391 288.005V287.864H472.532C472.532 287.712 472.619 287.723 472.744 287.723C472.744 287.575 472.814 287.66 472.814 287.512H472.956V287.441H473.026V287.371H473.096V287.3H473.167L473.237 287.159H473.378V287.018H473.59V286.877L474.013 286.666V286.524L474.295 286.384V286.313H474.436V286.243C474.584 286.243 474.499 286.172 474.647 286.172V286.102H474.789L474.859 285.961H475L475.07 285.819H475.211V285.749H475.282L475.352 285.608H475.493V285.538L475.846 285.397V285.326L476.199 285.185V285.114L476.41 284.974V284.903L476.692 284.833V284.762H476.904V284.621L477.256 284.48V284.409H477.397C477.397 284.306 477.435 284.269 477.538 284.269V284.198H477.679V284.128H477.75V284.057H477.89V283.987L478.102 283.916V283.845H478.243C478.243 283.711 478.342 283.69 478.455 283.634V283.564H478.595V283.493H478.666V283.352H478.807C478.807 283.2 478.894 283.211 479.019 283.211C479.019 283.107 479.056 283.07 479.16 283.07V283H479.23L479.301 282.929C479.493 282.929 479.531 282.647 479.724 282.647V282.576L480.006 282.506V282.435L480.288 282.295V282.224H480.358V282.153H480.499V282.083H480.64V282.012H480.711V281.942H480.852V281.871L481.416 281.66V281.59L481.768 281.449V281.378H481.839V281.307H481.98V281.237H482.05L482.121 281.096H482.262V281.025L482.685 280.814V280.743H482.755L482.826 280.673H482.967V280.602L483.108 280.532C483.108 280.38 483.194 280.391 483.319 280.391V280.32H483.46V280.25C483.659 280.25 483.672 280.237 483.672 280.038H483.883V279.968H483.954V279.897H484.095L484.165 279.756H484.236V279.686H484.307L484.377 279.615C484.551 279.615 484.485 279.474 484.659 279.474V279.404L484.871 279.333C484.871 279.229 484.908 279.192 485.012 279.192L485.153 279.122V278.416H485.716V278.346H485.787L486.209 277.711H486.351V277.57H486.492V277.429H486.562V277.359H486.703V277.288H486.773V277.218H486.985L487.056 277.077H487.197V277.006H487.408V276.936H487.549V276.865H487.761V276.795H487.902V276.653H488.043V276.583H488.113V276.513H488.536V275.51H487.408V275.44H486.773V275.369H484.941V275.087L480.342 275.157V275.228L479.582 275.369V275.158L475.901 275.228V275.299H475.407V275.651H474.718V275.58H464.918V275.51H464.707V275.439H460.178L460.107 275.58H457.217V277.695H456.935C456.935 278.494 456.682 280.717 457.076 281.307L457.146 282.435H457.217V282.859H457.287L457.217 284.534H457.146V286.156H457.076V296.889H457.429V297.225H457.358V297.296H457.288L457.217 297.719H457.147V297.93H457.076V299.356H458.079V299.003H458.149L458.29 298.58L458.431 298.51V298.439H458.502V298.298H458.643V298.228C458.785 298.228 458.925 298.265 458.925 298.087H458.995V298.016H459.136V297.946H459.348V297.875L459.7 297.805V297.734H459.771V297.664C460.004 297.664 460.053 297.696 460.053 297.452H460.194V297.311H460.335V297.17H460.405V296.889H460.476V296.677V296.677ZM446.5 275.196H446.664C446.64 275.307 446.65 275.429 446.648 275.544H446.653L446.658 275.66H446.883V275.655H446.893V275.644H446.898V275.639H446.914V275.634H446.925V275.623H446.93V275.618H446.935L446.941 275.602C446.948 275.602 446.951 275.599 446.951 275.592H446.956V275.586H446.962V275.576H446.972V275.565H446.983V275.555H446.993L446.999 275.539H447.004V275.534L447.02 275.528L447.025 275.518H447.035V275.507H447.051V275.502H447.062V275.496H447.067V275.491H447.078V275.486H447.088V275.481H447.094V275.476H447.104V275.465H447.12V275.454H447.125V275.449H447.131V275.444H447.141V275.438H447.152V275.433H447.157V275.428H447.162V275.423H447.172V275.418H447.178V275.412H447.183V275.407C447.191 275.407 447.194 275.404 447.194 275.397H447.199V275.391H447.21V275.386H447.215V275.381H447.22V275.37H447.225V275.365H447.231V275.359C447.238 275.359 447.241 275.357 447.241 275.349H447.252V275.344L447.262 275.339V275.333H447.268V275.328H447.273C447.273 275.316 447.28 275.317 447.289 275.317V275.307H447.299V275.296H447.31L447.315 275.28H447.325V275.27H447.336V275.265H447.341V275.254H447.352V275.249H447.378V275.243H447.384V275.238H447.389V275.233H447.394V275.227H447.405V275.222H447.41V274.966H447.394V274.94H446.822V274.945H446.611V274.956H446.569V274.993H446.484V275.196H446.5V275.196ZM414.605 299.896H414.617V299.693H414.496V299.653H414.456V299.613H414.376V299.573H414.179V299.567H414.169V299.561H414.167V299.541H413.964V299.764H413.966V299.78H413.969V299.782H413.976V299.839H413.979V299.86H413.982V299.959H414.605V299.896ZM435.586 288.538H435.466V288.578L435.184 288.739V288.78L434.982 288.901C434.982 289.029 434.78 289.034 434.78 289.223H434.74V289.304H434.7L434.66 289.385H434.579V289.465L434.498 289.505V289.546L434.337 289.626V289.667C434.259 289.693 434.176 289.696 434.176 289.787H434.095V289.828L434.015 289.868V289.909L433.893 289.989V290.029C433.809 290.029 433.858 290.07 433.773 290.07V290.15C433.673 290.15 433.711 290.231 433.611 290.231L433.571 290.311C433.512 290.311 433.491 290.333 433.491 290.392H433.41C433.41 290.479 433.361 290.473 433.289 290.473L433.208 290.594H433.128C433.128 290.653 433.106 290.674 433.047 290.674L433.007 290.755H432.967V290.795L432.805 290.876V290.916C432.706 290.916 432.743 290.997 432.644 290.997L432.604 291.077H432.523C432.453 291.218 432.344 291.271 432.201 291.319V291.359H432.12V291.44C431.917 291.44 431.8 291.682 431.596 291.682V291.722C431.517 291.722 431.562 291.763 431.435 291.763L431.395 291.884L431.112 291.964C431.112 292.045 430.994 292.07 430.911 292.126V292.166H430.83C430.83 292.253 430.78 292.246 430.709 292.246V292.287H430.628V292.367H430.548V292.408L430.306 292.569V292.65C430.247 292.65 430.225 292.671 430.225 292.73C430.14 292.73 430.19 292.77 430.104 292.77L430.064 292.851H430.024V292.891L429.943 292.932V292.972H429.863C429.863 293.094 429.702 293.028 429.702 293.174H429.621C429.621 293.233 429.6 293.254 429.54 293.254L429.5 293.335H429.419V293.375C429.36 293.375 429.339 293.396 429.339 293.456H429.258L429.218 293.537H429.178V293.576H429.097L429.056 293.657H429.016L428.936 293.778H428.815V293.859H428.694L428.654 293.939C428.582 293.939 428.532 293.933 428.532 294.02C428.447 294.02 428.496 294.06 428.412 294.06V294.1C428.392 294.1 428.092 294.276 428.049 294.302V294.343H427.968V294.423H427.928V294.463H427.847V294.504C427.762 294.504 427.811 294.544 427.726 294.544V294.584C427.66 294.584 427.451 294.786 427.363 294.786V294.826C427.279 294.826 427.328 294.867 427.243 294.867L427.202 294.947H427.122L427.001 295.068C426.933 295.068 426.759 295.137 426.759 295.229H426.678V295.269C426.667 295.269 426.205 295.523 426.154 295.552C426.154 295.639 426.105 295.632 426.033 295.632L425.832 295.793V295.834H425.751L425.671 295.915C425.586 295.915 425.635 295.955 425.55 295.955V295.995C425.414 296.04 425.309 296.156 425.187 296.156C425.187 296.243 425.138 296.237 425.066 296.237V296.277L424.945 296.317V296.358H424.865C424.865 296.445 424.815 296.439 424.743 296.439C424.646 296.536 424.447 296.573 424.341 296.68H424.179V296.721H424.099V296.761H424.018V296.841H423.937V296.882C423.852 296.882 423.901 296.922 423.817 296.922L423.805 297.722L423.285 297.762V298.044L422.842 298.125C422.735 298.125 422.565 298.367 422.439 298.367V298.447H422.359V298.528H422.278V298.568C422.193 298.568 422.241 298.608 422.157 298.608V298.649H422.117V298.689H421.835V299.692H424.49V299.613L427.466 299.483L427.506 299.403H427.788L427.797 299.393L452.82 299.523V299.483H452.86V299.443L452.9 299.403V297.951H453.142L452.82 291.421H452.86L452.94 277.521H452.947V277.481H453.028L453.068 277.36H453.109V275.995H452.025L451.945 276.519H451.864V276.559H451.703V276.6H451.663V276.64C451.524 276.64 451.519 276.721 451.381 276.721L451.179 276.761V276.801H450.695V277.413H449.977V277.493C449.865 277.493 449.896 277.604 449.896 277.695H449.855L449.735 278.138H448.727L448.734 278.662H448.687V278.703L448.606 278.743V278.783H448.525V278.823H448.485V278.864H448.405L448.364 278.985L447.437 279.388C447.037 279.388 446.662 279.992 446.389 279.992L446.188 280.275C446.039 280.275 445.608 280.825 445.503 280.96H445.462L445.422 281.04H445.381L445.26 281.242C444.897 281.425 444.567 282.33 444.132 282.33L442.238 283.419V283.459L439.577 285.837V285.918L439.375 286.039C439.174 286.039 438.943 286.24 438.851 286.24V286.281H438.771L438.731 286.321H438.65V286.361L437.642 287.006C437.454 287.006 437.548 287.127 437.36 287.127C437.287 287.274 437.1 287.338 436.957 287.409L436.07 287.933V288.014H435.99V288.054L435.586 288.336V288.538V288.538ZM414.091 282.673L414.32 287.725C414.542 289.456 413.992 291.993 414.498 293.812V294.537H414.458V294.658H414.418V294.981H414.377L414.337 295.263H414.297L414.257 295.867H414.216L414.176 297.918H414.216V297.958H414.257V298.845H414.297L414.337 299.168H415.38V299.006H415.42V298.925L415.46 298.885V298.845L415.944 298.805L416.025 298.442H416.065V298.361H416.106L416.186 298.2H416.226V298.16H416.307V298.119H416.347V298.079C416.429 298.079 416.508 298.101 416.508 297.999H416.549V297.958H416.589V297.918H416.67V297.877H416.791V297.837L416.912 297.797V297.757C417.068 297.757 417.237 297.749 417.315 297.595L417.798 297.475V297.394C417.858 297.394 417.879 297.373 417.879 297.313H417.919V297.273C418.01 297.213 418.201 297.06 418.201 296.951L418.282 296.91V296.87L418.725 296.789L418.749 295.92C420.498 295.419 421.026 293.647 422.655 293.315C424.941 292.849 424.693 291.39 425.921 290.589L436.7 282.436C436.779 282.357 438.868 281.609 439.739 280.101L440.653 279.98V279.94C440.78 279.94 440.736 279.9 440.814 279.9V279.859L441.057 279.779V279.738H441.137V279.698H441.177V279.658H441.258V279.618H441.339V279.577C441.417 279.577 441.373 279.537 441.5 279.537V279.496H441.54V279.456C441.625 279.456 441.576 279.416 441.661 279.416L441.701 279.335H441.782V279.295H441.822V279.255H441.903C441.943 279.173 441.934 279.094 442.024 279.094C442.024 278.932 442.105 278.996 442.105 278.892L442.185 278.69H442.225V278.65L442.266 278.61C442.266 278.55 442.287 278.529 442.346 278.529V278.489H442.427V278.449H442.628V278.408L442.951 278.368V278.328H442.991V277.803H443.596V277.683C443.734 277.683 443.676 277.403 443.676 277.279H444.16V276.877H445.047V276.353H445.813V276.312H445.934V275.31H444.447V275.35L443.924 275.391V275.431H443.722V275.713H443.636V275.552H443.596C443.596 275.472 443.555 275.518 443.555 275.391H442.513L442.473 275.552H437.837V275.582C436.153 274.958 433.866 275.228 432.251 275.249L420.564 275.369C419.478 275.464 418.357 275.357 417.371 275.444L414.357 275.41L414.091 282.673V282.673Z" fill="#00824A"/>
<path d="M206.247 673V653.787H209.464V670.328H224.006V673H206.247ZM230.568 673V653.787H233.785V673H230.568ZM261.759 656.405H246.709V670.328H261.759V664.693H253.979V662.239H264.958V668.456C264.958 670.213 264.643 671.413 264.013 672.055C263.383 672.685 262.195 673 260.45 673H248.017C246.26 673 245.067 672.679 244.436 672.037C243.818 671.394 243.509 670.201 243.509 668.456V658.331C243.509 656.586 243.818 655.393 244.436 654.75C245.067 654.108 246.26 653.787 248.017 653.787H260.45C262.171 653.787 263.352 654.102 263.995 654.732C264.637 655.35 264.958 656.477 264.958 658.113V658.586L261.759 659.222V656.405ZM274.192 673V653.787H277.409V661.639H292.55V653.787H295.75V673H292.55V664.293H277.409V673H274.192ZM313.199 656.405V673H310V656.405H301.221V653.787H322.015V656.405H313.199ZM357.732 656.405H344.136V661.767H356.242C357.951 661.767 359.12 662.082 359.75 662.712C360.38 663.342 360.695 664.536 360.695 666.293V668.456C360.695 670.225 360.386 671.425 359.768 672.055C359.15 672.685 357.975 673 356.242 673H345.027C343.282 673 342.094 672.685 341.464 672.055C340.834 671.413 340.519 670.213 340.519 668.456V667.929L343.5 667.238V670.328H357.805V664.548H345.736C343.991 664.548 342.809 664.233 342.191 663.603C341.573 662.96 341.264 661.761 341.264 660.004V658.331C341.264 656.574 341.573 655.381 342.191 654.75C342.809 654.108 343.991 653.787 345.736 653.787H355.969C357.678 653.787 358.853 654.102 359.496 654.732C360.15 655.35 360.477 656.441 360.477 658.004V658.404L357.732 659.186V656.405ZM377.872 656.405V673H374.673V656.405H365.894V653.787H386.688V656.405H377.872ZM392.087 673V653.787H410.591V656.368H395.304V661.712H404.647V664.257H395.304V670.364H410.736V673H392.087ZM418.37 673V653.787H436.874V656.368H421.588V661.712H430.93V664.257H421.588V670.364H437.02V673H418.37ZM444.654 673V653.787H447.871V670.328H462.413V673H444.654ZM482.898 673V653.787H501.184V656.405H486.115V662.694H494.713V665.257H486.115V673H482.898ZM520.869 656.277H509.854V663.021H520.869C521.669 663.021 522.214 662.876 522.505 662.585C522.796 662.294 522.941 661.785 522.941 661.058V658.259C522.941 657.532 522.79 657.023 522.487 656.732C522.196 656.429 521.657 656.277 520.869 656.277ZM506.637 673V653.787H522.124C523.566 653.787 524.602 654.084 525.232 654.678C525.874 655.259 526.195 656.205 526.195 657.513V661.803C526.195 663.1 525.874 664.045 525.232 664.639C524.602 665.22 523.566 665.511 522.124 665.511H519.306L528.086 673H523.323L515.507 665.511H509.854V673H506.637ZM538.937 665.82H549.28L544.099 655.987L538.937 665.82ZM531.975 673L542.463 653.787H545.899L556.569 673H553.042L550.588 668.274H537.592L535.138 673H531.975ZM565.384 657.223C565.433 657.598 565.469 657.992 565.493 658.404C565.518 658.816 565.53 659.361 565.53 660.04V673H562.803V653.787H565.421L574.764 666.293L583.47 653.787H586.415V673H583.47V660.04C583.47 659.87 583.488 659.446 583.525 658.768C583.573 658.077 583.604 657.562 583.616 657.223C583.373 657.719 583.155 658.137 582.961 658.477C582.78 658.816 582.616 659.089 582.471 659.295L575.127 669.983H574.309L566.675 659.586C566.663 659.573 566.632 659.531 566.584 659.458C566.027 658.695 565.627 657.95 565.384 657.223ZM596.43 673V653.787H614.934V656.368H599.648V661.712H608.99V664.257H599.648V670.364H615.08V673H596.43Z" fill="#00824A"/>
<path fill-rule="evenodd" clip-rule="evenodd" d="M446.657 275.338H414.365V299.642L430.512 287.49L446.657 275.338Z" stroke="#FEFEFE" stroke-width="0.75" stroke-miterlimit="22.9256"/>
<path d="M430.512 287.49L446.657 275.338M446.657 275.338H414.365V299.642L446.657 275.338ZM414.365 299.642L430.512 287.49L414.365 299.642Z" stroke="#FEFEFE" stroke-width="0.75" stroke-miterlimit="22.9256"/>
<path fill-rule="evenodd" clip-rule="evenodd" d="M420.76 299.642H453.052V275.338L436.906 287.49L420.76 299.642Z" stroke="#FEFEFE" stroke-width="0.75" stroke-miterlimit="22.9256"/>
<path fill-rule="evenodd" clip-rule="evenodd" d="M489.423 275.338H457.131V299.642L473.277 287.49L489.423 275.338Z" stroke="#FEFEFE" stroke-width="0.75" stroke-miterlimit="22.9256"/>
<path fill-rule="evenodd" clip-rule="evenodd" d="M463.526 299.642H495.818V275.338L479.672 287.49L463.526 299.642Z" stroke="#FEFEFE" stroke-width="0.75" stroke-miterlimit="22.9256"/>
<path fill-rule="evenodd" clip-rule="evenodd" d="M532.189 275.338H499.898V299.642L516.044 287.49L532.189 275.338Z" stroke="#FEFEFE" stroke-width="0.75" stroke-miterlimit="22.9256"/>
<path fill-rule="evenodd" clip-rule="evenodd" d="M506.292 299.642H538.584V275.338L522.438 287.49L506.292 299.642Z" stroke="#FEFEFE" stroke-width="0.75" stroke-miterlimit="22.9256"/>
<path fill-rule="evenodd" clip-rule="evenodd" d="M574.955 275.338H542.663V299.642L558.809 287.49L574.955 275.338Z" stroke="#FEFEFE" stroke-width="0.75" stroke-miterlimit="22.9256"/>
<path fill-rule="evenodd" clip-rule="evenodd" d="M549.058 299.642H581.35V275.338L565.204 287.49L549.058 299.642Z" stroke="#FEFEFE" stroke-width="0.75" stroke-miterlimit="22.9256"/>
</svg>