<?xml version="1.0" encoding="UTF-8"?>
<!DOCTYPE svg PUBLIC "-//W3C//DTD SVG 1.1//EN" "http://www.w3.org/Graphics/SVG/1.1/DTD/svg11.dtd">
<!-- Creator: CorelDRAW 2017 -->
<svg xmlns="http://www.w3.org/2000/svg" xml:space="preserve" width="600mm" height="300mm" version="1.1" style="shape-rendering:geometricPrecision; text-rendering:geometricPrecision; image-rendering:optimizeQuality; fill-rule:evenodd; clip-rule:evenodd"
viewBox="0 0 60000 30000"
 xmlns:xlink="http://www.w3.org/1999/xlink">
 <defs>
  <style type="text/css">
   <![CDATA[
    .str0 {stroke:#FEFEFE;stroke-width:7.62;stroke-miterlimit:22.9256}
    .fil0 {fill:#373435}
    .fil2 {fill:white}
    .fil3 {fill:#00824A}
    .fil1 {fill:#00824A;fill-rule:nonzero}
   ]]>
  </style>
 </defs>
 <g id="Camada_x0020_1">
  <metadata id="CorelCorpID_0Corel-Layer"/>
  <g id="_1714483380224">
   <path class="fil0" d="M39534.34 16312.68l0 -2625.37 610.54 0 0 2625.37 -610.54 0zm6197.09 -2167.46l-1719.71 0 0 564.77 1637.46 0c257.79,0 430.76,44.08 521.51,131.43 90.72,88.21 135.67,251 135.67,490.14l0 361.25c0,237.44 -44.95,401.1 -135.67,488.45 -90.75,87.32 -263.72,131.42 -521.51,131.42l-1622.21 0c-256.94,0 -430.76,-44.1 -520.66,-131.42 -90.73,-87.35 -135.68,-251.01 -135.68,-488.45l0 -72.08 539.32 -111.93 0 310.36 1857.1 0 0 -600.38 -1638.31 0c-255.25,0 -427.38,-44.1 -517.28,-131.45 -89.04,-87.32 -133.99,-250.14 -133.99,-488.43l0 -290.86c0,-238.29 44.95,-401.09 133.99,-489.28 89.9,-87.34 262.03,-131.45 517.28,-131.45l1490.76 0c246.76,0 417.21,42.4 510.49,126.36 94.12,84.79 140.76,234.05 140.76,449.44l0 55.11 -539.32 127.2 0 -300.2zm3811.71 2167.46l0 -2625.37 610.54 0 0 1017.59 1907.97 0 0 -1017.59 615.65 0 0 2625.37 -615.65 0 0 -1129.51 -1907.97 0 0 1129.51 -610.54 0zm6446.39 0l0 -2625.37 610.54 0 0 2625.37 -610.54 0z"/>
   <path class="fil0" d="M35464.85 15264.58l0 0 568.99 1048.1 686.01 0 -1506.01 -2625.37 -589.36 0 -1486.51 2625.37 608.85 0 566.46 -1048.1 1151.57 0 0 0 -1149.37 0 -2.2 0 584.26 -1068.47 567.31 1068.47zm-5751.91 -1109.18l0 2157.28 -610.56 0 0 -2157.28 -1205.84 0 0 -468.09 3027.32 0 0 468.09 -1210.92 0z"/>
  </g>
  <path class="fil1" d="M28156.33 19347.07l0 -1324.82 220.8 0 0 1139.96 1003.89 0 0 184.86 -1224.69 0zm1676.14 0l0 -1324.82 220.8 0 0 1324.82 -220.8 0zm2148.99 -1145.1l-1037.29 0 0 960.24 1037.29 0 0 -387.72 -536.58 0 0 -169.46 757.38 0 0 428.38c0,121.07 -21.81,203.66 -65.01,247.73 -43.66,44.12 -125.85,65.93 -246.05,65.93l-856.7 0c-121.53,0 -203.72,-22.27 -246.46,-66.33 -43.26,-44.53 -64.66,-127.07 -64.66,-247.33l0 -697.97c0,-120.2 21.4,-202.39 64.66,-246.86 42.74,-44.07 124.93,-66.33 246.46,-66.33l856.7 0c118.93,0 200.26,21.4 244.73,64.6 44.12,42.79 66.33,120.66 66.33,233.65l0 32.53 -220.8 44.07 0 -195.13zm857.16 1145.1l0 -1324.82 220.8 0 0 541.71 1044.96 0 0 -541.71 220.79 0 0 1324.82 -220.79 0 0 -600.78 -1044.96 0 0 600.78 -220.8 0zm2688.63 -1145.1l0 1145.1 -220.85 0 0 -1145.1 -605.91 0 0 -179.72 1435.22 0 0 179.72 -608.46 0zm3070.7 0l-937.17 0 0 369.72 834.44 0c118.13,0 198.99,21.81 242.65,65.01 43.67,43.66 65.47,126.26 65.47,247.38l0 148.87c0,122.39 -21.4,205.45 -64.2,248.65 -42.79,43.66 -124.06,65.47 -243.92,65.47l-773.24 0c-119.8,0 -201.53,-21.81 -245.19,-65.93 -43.2,-44.07 -65,-126.66 -65,-248.19l0 -36.34 205.39 -47.53 0 213.13 985.9 0 0 -397.99 -831.84 0c-120.26,0 -201.59,-21.8 -244.38,-65.86 -42.34,-43.67 -63.74,-126.26 -63.74,-247.79l0 -115.13c0,-121.07 21.4,-203.66 63.74,-247.32 42.79,-44.07 124.12,-65.87 244.38,-65.87l705.18 0c118.12,0 199.39,21.4 244.32,64.6 44.94,42.79 67.2,118.12 67.2,225.92l0 27.86 -189.99 53.87 0 -192.53zm1388.61 0l0 1145.1 -220.85 0 0 -1145.1 -605.92 0 0 -179.72 1435.22 0 0 179.72 -608.45 0zm980.77 1145.1l0 -1324.82 1276.02 0 0 177.13 -1055.23 0 0 369.72 644.44 0 0 174.59 -644.44 0 0 421.11 1065.5 0 0 182.27 -1286.29 0zm1812.66 0l0 -1324.82 1276.02 0 0 177.13 -1055.23 0 0 369.72 644.45 0 0 174.59 -644.45 0 0 421.11 1065.5 0 0 182.27 -1286.29 0zm1812.66 0l0 -1324.82 220.8 0 0 1139.96 1003.89 0 0 184.86 -1224.69 0zm2636.38 0l0 -1324.82 1260.62 0 0 179.72 -1039.83 0 0 433.92 593.11 0 0 177.13 -593.11 0 0 534.05 -220.79 0zm2617.57 -1152.83l-760.84 0 0 464.72 760.84 0c55.2,0 92.86,-9.8 112.99,-29.93 20.07,-20.13 29.93,-55.2 29.93,-105.27l0 -192.99c0,-50.07 -10.26,-85.19 -30.8,-105.73 -20.53,-20.53 -57.79,-30.8 -112.12,-30.8zm-981.63 1152.83l0 -1324.82 1068.09 0c99.26,0 170.73,20.07 214.39,60.73 43.6,40.67 65.46,106.13 65.46,196.46l0 295.66c0,89.46 -21.86,154.46 -65.46,195.12 -43.66,40.67 -115.13,60.8 -214.39,60.8l-194.73 0 605.11 516.05 -328.65 0 -539.18 -516.05 -389.85 0 0 516.05 -220.79 0zm2225.58 -495.52l713.77 0 -357.72 -677.84 -356.05 677.84zm-480.52 495.52l723.58 -1324.82 237.12 0 736.44 1324.82 -243.52 0 -169 -326.06 -896.9 0 -169.46 326.06 -218.26 0zm2303.51 -1087.76c3,25.66 5.54,53.06 7.27,81.32 1.73,28.21 2.54,65.87 2.54,112.94l0 893.5 -187.4 0 0 -1324.82 180.59 0 643.58 862.23 600.78 -862.23 202.85 0 0 1324.82 -202.85 0 0 -893.5c0,-12 1.27,-41.53 4.27,-88.6 3,-47.06 5.13,-82.54 5.59,-105.66 -16.73,34.2 -31.26,62.87 -44.53,86.46 -12.8,23.07 -24.4,41.93 -34.2,56.46l-506.65 736.85 -56.52 0 -526.32 -717.18c-0.87,-0.86 -3,-3.4 -6.4,-8.53 -38.53,-52.67 -65.93,-104 -82.6,-154.06zm2140.45 1087.76l0 -1324.82 1276.03 0 0 177.13 -1055.23 0 0 369.72 644.44 0 0 174.59 -644.44 0 0 421.11 1065.49 0 0 182.27 -1286.29 0z"/>
  <g id="_1714483377248">
   <polygon class="fil2 str0" points="16333.22,9281.84 14506.44,9281.84 14506.44,10656.75 15419.84,9969.29 "/>
   <polygon class="fil2 str0" points="14868.2,10656.74 16694.98,10656.74 16694.98,9281.84 15781.58,9969.29 "/>
  </g>
  <g id="_1714483376992">
   <polygon class="fil2 str0" points="18752.54,9281.84 16925.76,9281.84 16925.76,10656.75 17839.15,9969.29 "/>
   <polygon class="fil2 str0" points="17287.52,10656.74 19114.3,10656.74 19114.3,9281.84 18200.9,9969.29 "/>
  </g>
  <g id="_1714483374880">
   <polygon class="fil2 str0" points="21171.85,9281.84 19345.07,9281.84 19345.07,10656.75 20258.47,9969.29 "/>
   <polygon class="fil2 str0" points="19706.83,10656.74 21533.61,10656.74 21533.61,9281.84 20620.21,9969.29 "/>
  </g>
  <g id="_1714483373792">
   <polygon class="fil2 str0" points="23591.16,9281.84 21764.38,9281.84 21764.38,10656.75 22677.78,9969.29 "/>
   <polygon class="fil2 str0" points="22126.15,10656.74 23952.92,10656.74 23952.92,9281.84 23039.53,9969.29 "/>
  </g>
  <g id="_1714483374080">
   <polygon class="fil2 str0" points="23591.16,9281.84 21764.38,9281.84 21764.38,10656.75 22677.78,9969.29 "/>
   <polygon class="fil2 str0" points="22126.15,10656.74 23952.92,10656.74 23952.92,9281.84 23039.53,9969.29 "/>
  </g>
  <g id="_1714483372224">
   <path class="fil3" d="M22774.6 11561.51l1985.34 -1499.95 42.22 -29.88c26.16,94.88 26.55,1447.46 2.7,1552.14l-2033.52 3.7c-25.96,-24.04 -11.8,4.21 3.26,-26.01zm-2592.2 -10.64l1995.8 -1493.37 23.97 -25.38 10.07 1548.05c-115.44,30.91 -1860.82,26.23 -2060.67,8.66l30.83 -37.96zm-582.66 -1513.01l-0.77 1542.48 -2046.57 0.05c121.06,-80.57 346.4,-270.84 486.12,-376.4 173.29,-130.94 347.86,-257.99 519.24,-387.66 308.95,-233.78 725.3,-586.43 1041.98,-778.47zm-4636.28 1524.77l2019.92 -1515.18 13.72 -10.08 8.03 1545.58 -2019.89 7.2c-69.52,-21.9 -29.2,-2.58 -21.78,-27.52zm4837.84 30.56l-0.39 -1538.81 2040.85 -0.27c-40.59,56.6 -1937.16,1490.9 -2040.46,1539.08zm-5207.11 -19.42l-1.24 -1519.39 2028.31 0.15c-24.14,63.82 -859.65,670.01 -985.65,765.28 -156.73,118.5 -927.12,732.09 -1041.42,753.96zm7810.1 20.93l0.53 -1539.1 2045.57 -1.05c-90.89,77.6 -1902.99,1462.99 -2046.1,1540.15zm-3196.61 -1501.7l-1965.73 1482.33 -42.12 27.35 -12 -1549.88 2059.17 -6.91 -39.32 47.11zm-17180.76 14561.15l0 12.63c125.24,99.89 1359.81,1630.57 1446.41,1797.21l30.17 0c263.3,-166.88 593.24,-320.72 872.38,-473.58 803.58,-440.11 1749.42,-1028.87 2486.37,-1551.13 513.87,-364.16 1049.31,-761.31 1523.78,-1174.96 240.1,-209.35 477.14,-410.45 706.61,-632.15 225.11,-217.48 479.38,-437.6 694.78,-664.86 1627.97,-1717.42 2848.71,-3585.44 3611.95,-5823.39 98.11,-287.63 213.19,-804.7 330.48,-1043.81l332.93 976.65c323.5,908.77 745.92,1860.09 1217.48,2696.5 306.03,542.79 640.35,1084.08 1009.35,1586.43 331.94,451.88 780.71,1052.03 1177.04,1439.26 220.71,215.64 410.1,443.63 643.03,654.61 228.27,206.79 450.56,411.31 681.59,616.23 1271.09,1127.37 3357.83,2342.27 4908,2915.75 39.74,-28.28 678.09,-777.01 868.68,-959.83 148.41,-142.33 293.93,-313.57 443.6,-463.13 108.29,-108.16 421.37,-365.18 468.85,-480.52 -653.83,-170 -1478.68,-520.85 -2102.27,-799.08 -1326.42,-591.83 -2476.08,-1295.57 -3609.07,-2200.33 -1638.31,-1308.27 -2913.87,-3015.76 -3819.68,-4894.66 -628.24,-1303.09 -1174.51,-3032.17 -1386.39,-4461.13l10434.16 0 2.85 -1832.55 -10398.75 -0.02 49.44 -6358.28 -2040.04 0c-0.19,280.35 -17.15,5995.36 -65.21,6356.79 -832.3,20.74 -1690.17,1.49 -2525.29,1.49 -844.66,0 -1689.29,0 -2533.95,0 -291.15,0 -4873.76,-28.06 -5036.16,15.21l3.72 1817.24 10015.27 2.79c-265.68,3114.76 -1437.92,5838.58 -3522.64,8160.58 -871.21,970.32 -2056.83,1987.24 -3150.43,2699.76 -1511.36,984.73 -2165.99,1300.71 -3769.04,2064.28z"/>
   <path class="fil3" d="M24759.94 10061.56c43.56,40.35 27.11,-52.34 41.32,85.51l-2.94 1418.62 -2023.72 -4.18c-15.06,30.22 -29.22,1.97 -3.26,26.01l2033.52 -3.7c23.85,-104.68 23.46,-1457.26 -2.7,-1552.14l-42.22 29.88z"/>
   <path class="fil3" d="M14963.46 11562.63c-7.42,24.94 -47.74,5.62 21.78,27.52l2019.89 -7.2 -8.03 -1545.58 -13.72 10.08 2.09 1522.21 -2022.01 -7.03z"/>
   <path class="fil3" d="M20182.4 11550.87l-30.83 37.96c199.85,17.57 1945.23,22.25 2060.67,-8.66l-10.07 -1548.05 -23.97 25.38c46.84,77.01 14.65,1313.72 14.65,1514.93l-1955.6 3.87 -54.85 -25.43z"/>
   <path class="fil3" d="M17241.95 11575.33c-58.35,-30.69 -33.48,-224.19 -33.48,-355.47l0 -1152.97c98.72,0 1890.55,-29.52 1987.21,16.11 3.19,1.51 8.37,6.25 12,10l39.32 -47.11 -2059.17 6.91 12 1549.88 42.12 -27.35z"/>
  </g>
 </g>
</svg>
