<?xml version="1.0" encoding="UTF-8"?>
<!DOCTYPE svg PUBLIC "-//W3C//DTD SVG 1.1//EN" "http://www.w3.org/Graphics/SVG/1.1/DTD/svg11.dtd">
<!-- Creator: CorelDRAW 2017 -->
<svg xmlns="http://www.w3.org/2000/svg" xml:space="preserve" width="800mm" height="200mm" version="1.1" style="shape-rendering:geometricPrecision; text-rendering:geometricPrecision; image-rendering:optimizeQuality; fill-rule:evenodd; clip-rule:evenodd"
viewBox="0 0 80000 20000"
 xmlns:xlink="http://www.w3.org/1999/xlink">
 <defs>
  <style type="text/css">
   <![CDATA[
    .fil0 {fill:#373435}
    .fil2 {fill:#00824A}
    .fil1 {fill:#00824A;fill-rule:nonzero}
   ]]>
  </style>
 </defs>
 <g id="Camada_x0020_1">
  <metadata id="CorelCorpID_0Corel-Layer"/>
  <g id="_1714388243296">
   <path class="fil0" d="M41765.65 9593.51l0 -5258.26 1222.84 0 0 5258.26 -1222.84 0zm12411.95 -4341.14l-3444.36 0 0 1131.16 3279.61 0c516.31,0 862.76,88.29 1044.51,263.23 181.71,176.67 271.74,502.73 271.74,981.69l0 723.52c0,475.57 -90.03,803.37 -271.74,978.3 -181.75,174.9 -528.2,263.24 -1044.51,263.24l-3249.07 0c-514.62,0 -862.76,-88.34 -1042.82,-263.24 -181.7,-174.93 -271.73,-502.73 -271.73,-978.3l0 -144.35 1080.17 -224.18 0 621.61 3719.52 0 0 -1202.48 -3281.3 0c-511.24,0 -856,-88.34 -1036.05,-263.27 -178.33,-174.9 -268.35,-501 -268.35,-978.26l0 -582.57c0,-477.26 90.02,-803.32 268.35,-979.95 180.05,-174.94 524.81,-263.27 1036.05,-263.27l2985.79 0c494.23,0 835.6,84.91 1022.43,253.08 188.52,169.82 281.93,468.75 281.93,900.16l0 110.37 -1080.17 254.78 0 -601.27zm7634.33 4341.14l0 -5258.26 1222.83 0 0 2038.08 3821.4 0 0 -2038.08 1233.07 0 0 5258.26 -1233.07 0 0 -2262.27 -3821.4 0 0 2262.27 -1222.83 0zm12911.25 0l0 -5258.26 1222.83 0 0 5258.26 -1222.83 0z"/>
   <path class="fil0" d="M33615.01 7494.29l0 0 1139.61 2099.22 1374 0 -3016.34 -5258.26 -1180.4 0 -2977.29 5258.26 1219.44 0 1134.54 -2099.22 2306.44 0 0 0 -2302.02 0 -4.42 0 1170.21 -2140 1136.23 2140zm-11520.29 -2221.53l0 4320.75 -1222.87 0 0 -4320.75 -2415.13 0 0 -937.51 6063.32 0 0 937.51 -2425.32 0z"/>
  </g>
  <path class="fil1" d="M18977.05 15670.96l0 -2653.43 442.22 0 0 2283.18 2010.67 0 0 370.25 -2452.89 0zm3357.08 0l0 -2653.43 442.22 0 0 2653.43 -442.22 0zm4304.14 -2293.46l-2077.56 0 0 1923.21 2077.56 0 0 -776.54 -1074.71 0 0 -339.4 1516.93 0 0 857.98c0,242.48 -43.67,407.91 -130.2,496.17 -87.45,88.38 -252.07,132.04 -492.82,132.04l-1715.85 0c-243.41,0 -408.03,-44.59 -493.63,-132.85 -86.64,-89.18 -129.5,-254.49 -129.5,-495.36l0 -1397.93c0,-240.75 42.86,-405.37 129.5,-494.44 85.6,-88.26 250.22,-132.85 493.63,-132.85l1715.85 0c238.21,0 401.1,42.86 490.16,129.38 88.38,85.72 132.86,241.68 132.86,467.99l0 65.15 -442.22 88.26 0 -390.81zm1716.77 2293.46l0 -2653.43 442.22 0 0 1084.99 2092.92 0 0 -1084.99 442.22 0 0 2653.43 -442.22 0 0 -1203.28 -2092.92 0 0 1203.28 -442.22 0zm5384.96 -2293.46l0 2293.46 -442.33 0 0 -2293.46 -1213.56 0 0 -359.97 2874.54 0 0 359.97 -1218.65 0zm6150.19 0l-1877.01 0 0 740.5 1671.26 0c236.59,0 398.55,43.66 486,130.19 87.45,87.45 131.12,252.88 131.12,495.47l0 298.17c0,245.14 -42.86,411.49 -128.58,498.01 -85.71,87.46 -248.48,131.12 -488.54,131.12l-1548.69 0c-239.94,0 -403.64,-43.66 -491.09,-132.04 -86.52,-88.26 -130.19,-253.69 -130.19,-497.09l0 -72.78 411.37 -95.19 0 426.85 1974.63 0 0 -797.1 -1666.07 0c-240.86,0 -403.75,-43.67 -489.47,-131.93 -84.79,-87.45 -127.65,-252.88 -127.65,-496.28l0 -230.58c0,-242.49 42.86,-407.91 127.65,-495.36 85.72,-88.26 248.61,-131.93 489.47,-131.93l1412.38 0c236.59,0 399.36,42.86 489.35,129.38 89.99,85.72 134.59,236.59 134.59,452.51l0 55.79 -380.53 107.9 0 -385.61zm2781.2 0l0 2293.46 -442.34 0 0 -2293.46 -1213.56 0 0 -359.97 2874.54 0 0 359.97 -1218.64 0zm1964.34 2293.46l0 -2653.43 2555.7 0 0 354.77 -2113.48 0 0 740.5 1290.73 0 0 349.68 -1290.73 0 0 843.43 2134.05 0 0 365.05 -2576.27 0zm3630.52 0l0 -2653.43 2555.7 0 0 354.77 -2113.48 0 0 740.5 1290.73 0 0 349.68 -1290.73 0 0 843.43 2134.05 0 0 365.05 -2576.27 0zm3630.52 0l0 -2653.43 442.22 0 0 2283.18 2010.67 0 0 370.25 -2452.89 0zm5280.3 0l0 -2653.43 2524.86 0 0 359.97 -2082.64 0 0 869.07 1187.92 0 0 354.77 -1187.92 0 0 1069.62 -442.22 0zm5242.64 -2308.94l-1523.86 0 0 930.76 1523.86 0c110.55,0 185.99,-19.64 226.31,-59.96 40.2,-40.31 59.95,-110.55 59.95,-210.82l0 -386.54c0,-100.28 -20.56,-170.63 -61.68,-211.75 -41.13,-41.13 -115.76,-61.69 -224.58,-61.69zm-1966.08 2308.94l0 -2653.43 2139.25 0c198.81,0 341.94,40.2 429.39,121.64 87.34,81.45 131.12,212.57 131.12,393.47l0 592.17c0,179.18 -43.78,309.37 -131.12,390.81 -87.45,81.45 -230.58,121.76 -429.39,121.76l-390.01 0 1211.95 1033.58 -658.25 0 -1079.9 -1033.58 -780.82 0 0 1033.58 -442.22 0zm4457.55 -992.45l1429.59 0 -716.47 -1357.62 -713.12 1357.62zm-962.42 992.45l1449.23 -2653.43 474.91 0 1474.99 2653.43 -487.73 0 -338.48 -653.05 -1796.37 0 -339.41 653.05 -437.14 0zm4613.62 -2178.63c6.01,51.4 11.09,106.28 14.56,162.88 3.46,56.49 5.08,131.93 5.08,226.2l0 1789.55 -375.33 0 0 -2653.43 361.7 0 1289 1726.94 1203.28 -1726.94 406.29 0 0 2653.43 -406.29 0 0 -1789.55c0,-24.03 2.54,-83.18 8.55,-177.45 6,-94.26 10.28,-165.31 11.2,-211.63 -33.5,68.5 -62.61,125.92 -89.18,173.16 -25.65,46.21 -48.87,83.99 -68.5,113.1l-1014.75 1475.8 -113.22 0 -1054.14 -1436.41c-1.73,-1.73 -6,-6.81 -12.82,-17.09 -77.17,-105.48 -132.04,-208.29 -165.43,-308.56zm4287.04 2178.63l0 -2653.43 2555.7 0 0 354.77 -2113.48 0 0 740.5 1290.73 0 0 349.68 -1290.73 0 0 843.43 2134.04 0 0 365.05 -2576.26 0z"/>
  <g id="_1714388309856">
   <path class="fil2" d="M14928.41 8197.79l1040.57 -786.16 22.13 -15.66c13.71,49.73 13.91,758.65 1.41,813.52l-1065.82 1.94c-13.61,-12.6 -6.18,2.2 1.71,-13.64zm-1358.64 -5.57l1046.05 -782.72 12.56 -13.3 5.28 811.38c-60.5,16.19 -975.3,13.74 -1080.05,4.54l16.16 -19.9zm-305.39 -793.01l-0.41 808.45 -1072.66 0.03c63.46,-42.23 181.56,-141.95 254.79,-197.28 90.83,-68.63 182.32,-135.22 272.15,-203.19 161.93,-122.53 380.15,-307.36 546.13,-408.01zm-2430 799.17l1058.69 -794.15 7.2 -5.28 4.2 810.08 -1058.68 3.77c-36.43,-11.47 -15.3,-1.35 -11.41,-14.42zm2535.64 16.02l-0.2 -806.53 1069.66 -0.14c-21.27,29.66 -1015.31,781.42 -1069.46,806.67zm-2729.18 -10.18l-0.65 -796.35 1063.09 0.07c-12.65,33.46 -450.57,351.18 -516.61,401.11 -82.15,62.11 -485.93,383.71 -545.83,395.17zm4093.48 10.97l0.28 -806.69 1072.14 -0.54c-47.64,40.67 -997.41,766.79 -1072.42,807.23zm-1675.43 -787.08l-1030.29 776.93 -22.08 14.33 -6.29 -812.33 1079.27 -3.62 -20.61 24.69zm-9004.9 7631.89l0 6.62c65.64,52.36 712.71,854.63 758.1,941.97l15.82 0c138,-87.47 310.93,-168.1 457.23,-248.22 421.18,-230.67 916.92,-539.26 1303.18,-812.99 269.33,-190.86 549.97,-399.02 798.65,-615.83 125.84,-109.72 250.08,-215.12 370.35,-331.32 117.99,-113.99 251.26,-229.36 364.16,-348.47 853.26,-900.15 1493.08,-1879.23 1893.12,-3052.2 51.42,-150.76 111.73,-421.77 173.21,-547.09l174.5 511.89c169.55,476.31 390.95,974.92 638.11,1413.31 160.4,284.49 335.63,568.19 529.03,831.49 173.98,236.84 409.19,551.4 616.92,754.35 115.68,113.03 214.94,232.52 337.03,343.1 119.64,108.38 236.15,215.58 357.24,322.99 666.21,590.88 1759.93,1227.64 2572.41,1528.22 20.83,-14.82 355.41,-407.25 455.3,-503.07 77.79,-74.6 154.06,-164.35 232.51,-242.74 56.75,-56.69 220.85,-191.4 245.73,-251.86 -342.69,-89.1 -775.01,-272.99 -1101.85,-418.82 -695.22,-310.19 -1297.78,-679.04 -1891.61,-1153.25 -858.69,-685.7 -1527.25,-1580.64 -2002.01,-2565.42 -329.27,-682.99 -615.59,-1589.24 -726.64,-2338.2l5468.83 0 1.49 -960.49 -5450.27 -0.01 25.92 -3332.55 -1069.24 0c-0.1,146.94 -8.99,3142.33 -34.18,3331.77 -436.23,10.87 -885.86,0.78 -1323.57,0.78 -442.71,0 -885.41,0 -1328.11,0 -152.61,0 -2554.47,-14.71 -2639.59,7.97l1.95 952.46 5249.27 1.47c-139.25,1632.53 -753.65,3060.16 -1846.31,4277.18 -456.62,508.57 -1078.04,1041.57 -1651.22,1415.02 -792.15,516.12 -1135.26,681.73 -1975.46,1081.94z"/>
   <path class="fil2" d="M15968.98 7411.63c22.83,21.15 14.21,-27.43 21.66,44.82l-1.55 743.54 -1060.68 -2.2c-7.89,15.84 -15.32,1.04 -1.71,13.64l1065.82 -1.94c12.5,-54.87 12.3,-763.79 -1.41,-813.52l-22.13 15.66z"/>
   <path class="fil2" d="M10834.38 8198.38c-3.89,13.07 -25.02,2.95 11.41,14.42l1058.68 -3.77 -4.2 -810.08 -7.2 5.28 1.1 797.84 -1059.79 -3.69z"/>
   <path class="fil2" d="M13569.77 8192.22l-16.16 19.9c104.75,9.2 1019.55,11.65 1080.05,-4.54l-5.28 -811.38 -12.56 13.3c24.55,40.37 7.68,688.56 7.68,794.02l-1024.99 2.03 -28.74 -13.33z"/>
   <path class="fil2" d="M12028.6 8205.04c-30.59,-16.09 -17.55,-117.51 -17.55,-186.31l0 -604.31c51.74,0 990.89,-15.47 1041.55,8.45 1.67,0.79 4.39,3.27 6.29,5.24l20.61 -24.69 -1079.27 3.62 6.29 812.33 22.08 -14.33z"/>
  </g>
 </g>
</svg>
